<svg xmlns="http://www.w3.org/2000/svg" xmlns:xlink="http://www.w3.org/1999/xlink" width="500" zoomAndPan="magnify" viewBox="0 0 375 374.999991" height="500" preserveAspectRatio="xMidYMid meet" version="1.0"><defs><clipPath id="id1"><path d="M 219 237 L 334.5 237 L 334.5 336.207031 L 219 336.207031 Z M 219 237 " clip-rule="nonzero"/></clipPath><clipPath id="id2"><path d="M 37.5 38.457031 L 154 38.457031 L 154 139 L 37.5 139 Z M 37.5 38.457031 " clip-rule="nonzero"/></clipPath><clipPath id="id3"><path d="M 42 38.457031 L 332 38.457031 L 332 336.207031 L 42 336.207031 Z M 42 38.457031 " clip-rule="nonzero"/></clipPath></defs><g clip-path="url(#id1)"><path fill="#ef0044" d="M 276.898438 237.359375 L 219.382812 336.207031 L 334.414062 336.207031 Z M 276.898438 237.359375 " fill-opacity="1" fill-rule="nonzero"/></g><g clip-path="url(#id2)"><path fill="#ef0044" d="M 153.605469 38.457031 L 37.582031 38.457031 L 95.597656 138.164062 Z M 153.605469 38.457031 " fill-opacity="1" fill-rule="nonzero"/></g><g clip-path="url(#id3)"><path fill="#ef0044" d="M 331.222656 38.457031 L 215.515625 38.457031 L 188.339844 85.15625 L 126.546875 191.371094 L 42.273438 336.207031 L 157.980469 336.207031 L 184.40625 290.796875 L 184.40625 290.792969 L 246.199219 184.589844 Z M 331.222656 38.457031 " fill-opacity="1" fill-rule="nonzero"/></g></svg>