<svg width="72" height="98" viewBox="0 0 72 98" fill="none" xmlns="http://www.w3.org/2000/svg">
<path d="M53.0867 36.4869L42.1917 54.6223H63.9806L53.0867 36.4869Z" fill="#EB1515"/>
<path d="M29.7322 0H7.75391L18.7407 18.295L29.7322 0Z" fill="#EB1515"/>
<path d="M63.3727 0H41.4516L36.3025 8.56795L24.6009 28.0532L8.64966 54.6165H30.5708L35.5746 46.288L47.2797 26.8062L63.3727 0Z" fill="#EB1515"/>
<path d="M19.1038 97.6542H0V94.233L12.3065 77.1471H0.330223V72.7946H18.7709V76.1973L6.47983 93.3017H19.1038V97.6542Z" fill="white"/>
<path d="M43.3283 97.6542L41.4625 91.7342H32.1044L30.2477 97.6542H24.3828L33.4462 72.6906H40.1007L49.1932 97.6515L43.3283 97.6542ZM40.168 87.3165C38.4469 81.9501 37.4789 78.9165 37.2642 78.2158C37.0496 77.515 36.894 76.9588 36.7976 76.547C36.4094 77.9996 35.302 81.5894 33.4753 87.3165H40.168Z" fill="white"/>
<path d="M71.9941 90.7475C72.0382 91.7611 71.8344 92.7706 71.3994 93.6936C70.9643 94.6165 70.3103 95.4269 69.4906 96.0586C67.8197 97.3508 65.5 97.997 62.5313 97.997C60.0189 98.0448 57.5289 97.5323 55.2537 96.4991V91.5933C56.6744 92.2333 58.1451 92.7636 59.6521 93.1792C60.7249 93.47 61.8322 93.6249 62.9461 93.64C63.9091 93.6992 64.8672 93.467 65.688 92.9757C66.0068 92.7517 66.262 92.4533 66.4301 92.1083C66.5982 91.7633 66.6737 91.3828 66.6495 91.0021C66.6554 90.5367 66.5089 90.0814 66.2311 89.7016C65.8901 89.2666 65.4706 88.895 64.993 88.6047C63.9191 87.9823 62.81 87.419 61.6707 86.9174C60.4015 86.3867 59.2106 85.6952 58.1292 84.861C57.3606 84.2185 56.725 83.4406 56.2562 82.5684C55.7737 81.6168 55.5353 80.5665 55.5611 79.5066C55.5118 78.5298 55.6937 77.555 56.0931 76.6567C56.4925 75.7585 57.0987 74.9606 57.8654 74.3241C59.693 72.9748 61.9593 72.3043 64.2534 72.4342C65.5421 72.4289 66.8262 72.5837 68.0741 72.895C69.3721 73.2323 70.642 73.6638 71.8731 74.1858L70.1201 78.2802C69.0137 77.8282 67.877 77.4494 66.7178 77.1462C65.8524 76.9352 64.9638 76.8269 64.0714 76.8238C63.2189 76.7709 62.3758 77.0216 61.7007 77.5286C61.4325 77.7527 61.2197 78.0323 61.078 78.3468C60.9363 78.6613 60.8693 79.0025 60.882 79.3454C60.8721 79.7733 60.9875 80.1952 61.215 80.5622C61.4935 80.9631 61.8531 81.305 62.272 81.5675C63.3887 82.2099 64.5429 82.7888 65.7289 83.3015C67.6082 84.0504 69.2925 85.194 70.6604 86.6496C71.5688 87.831 72.0388 89.275 71.9941 90.7475Z" fill="white"/>
</svg>
