<svg width="92" height="31" viewBox="0 0 92 31" fill="none" xmlns="http://www.w3.org/2000/svg">
<path d="M25.8553 20.8281L19.8025 30.862H31.9074L25.8553 20.8281Z" fill="#EB1515"/>
<path d="M12.8806 0.640625H0.67041L6.77418 10.7629L12.8806 0.640625Z" fill="#EB1515"/>
<path d="M31.5699 0.640625H19.3915L16.5309 5.3811L10.03 16.1619L1.16821 30.8589H13.3466L16.1265 26.2509L22.6294 15.472L31.5699 0.640625Z" fill="#EB1515"/>
<path d="M52.8734 25.3708H38.9741V22.8857L47.9279 10.4748H39.2144V7.31323H52.6312V9.78491L43.6886 22.2092H52.8734V25.3708Z" fill="#021622"/>
<path d="M70.4985 25.3709L69.141 21.0708H62.3323L60.9814 25.3709H56.7144L63.3086 7.23779H68.1502L74.7656 25.369L70.4985 25.3709ZM68.1991 17.8618C66.9469 13.9638 66.2426 11.7602 66.0864 11.2512C65.9302 10.7422 65.8171 10.3382 65.7469 10.0391C65.4645 11.0942 64.6588 13.7018 63.3298 17.8618H68.1991Z" fill="#021622"/>
<path d="M91.3545 20.354C91.3866 21.0903 91.2384 21.8236 90.9219 22.494C90.6053 23.1644 90.1295 23.753 89.5331 24.2119C88.3174 25.1506 86.6297 25.6199 84.4698 25.6199C82.6419 25.6546 80.8302 25.2824 79.1748 24.5319V20.9684C80.2085 21.4333 81.2785 21.8185 82.3749 22.1204C83.1555 22.3316 83.9611 22.4441 84.7716 22.4551C85.4722 22.4981 86.1693 22.3294 86.7665 21.9725C86.9984 21.8098 87.1841 21.5931 87.3064 21.3425C87.4287 21.0919 87.4836 20.8155 87.4661 20.5389C87.4703 20.2009 87.3638 19.8702 87.1616 19.5943C86.9135 19.2783 86.6083 19.0084 86.2608 18.7975C85.4795 18.3454 84.6725 17.9362 83.8436 17.5719C82.9202 17.1864 82.0537 16.6841 81.267 16.0781C80.7078 15.6115 80.2453 15.0464 79.9042 14.4129C79.5532 13.7216 79.3797 12.9587 79.3985 12.1889C79.3626 11.4793 79.495 10.7712 79.7856 10.1187C80.0761 9.46625 80.5172 8.88669 81.075 8.42438C82.4047 7.44422 84.0536 6.95719 85.7227 7.05158C86.6603 7.04768 87.5946 7.16017 88.5025 7.3863C89.4469 7.63131 90.3708 7.94473 91.2665 8.3239L89.9911 11.298C89.1861 10.9697 88.3591 10.6945 87.5157 10.4743C86.8861 10.321 86.2396 10.2423 85.5903 10.2401C84.97 10.2017 84.3566 10.3838 83.8655 10.7521C83.6703 10.9149 83.5155 11.118 83.4124 11.3464C83.3093 11.5748 83.2605 11.8227 83.2698 12.0717C83.2626 12.3826 83.3466 12.689 83.512 12.9556C83.7147 13.2468 83.9764 13.4952 84.2811 13.6858C85.0936 14.1524 85.9333 14.573 86.7962 14.9453C88.1636 15.4894 89.389 16.32 90.3842 17.3773C91.0452 18.2356 91.3871 19.2844 91.3545 20.354Z" fill="#021622"/>
</svg>
